<svg width="93" height="65" viewBox="0 0 93 65" fill="none" xmlns="http://www.w3.org/2000/svg">
    <path d="M22.4596 26.7459V15.8988H25.8101C26.599 15.8988 27.1808 15.9679 27.5556 16.106C28.0684 16.2935 28.4776 16.6412 28.7833 17.1493C29.089 17.6574 29.2419 18.2813 29.2419 19.0213C29.2419 19.9979 28.9929 20.7946 28.4949 21.4111C27.9969 22.0277 27.1364 22.336 25.9136 22.336H23.6356V26.7459H22.4596ZM23.6356 21.056H25.9358C26.6606 21.056 27.1907 20.8932 27.526 20.5677C27.8613 20.2372 28.0289 19.7414 28.0289 19.0804C28.0289 18.6513 27.9451 18.2838 27.7774 17.978C27.6147 17.6722 27.415 17.4625 27.1784 17.3491C26.9466 17.2356 26.525 17.1789 25.9136 17.1789H23.6356V21.056Z" fill="#D9D9D9"/>
    <path d="M33.6502 17.2011V15.8988H34.7523V17.2011C35.8814 17.2751 36.7739 17.6894 37.4297 18.4441C38.0904 19.1988 38.4207 20.141 38.4207 21.2706C38.4207 22.4002 38.0953 23.3448 37.4444 24.1044C36.7936 24.8591 35.8962 25.2735 34.7523 25.3475V26.7459H33.6502V25.3475C32.5951 25.2981 31.7174 24.9084 31.0172 24.1784C30.322 23.4434 29.9744 22.4741 29.9744 21.2706C29.9744 20.067 30.322 19.1002 31.0172 18.3701C31.7174 17.6401 32.5951 17.2504 33.6502 17.2011ZM34.7523 18.4293V24.1118C35.4771 24.0575 36.0663 23.7986 36.5199 23.3349C36.9785 22.8712 37.2078 22.1831 37.2078 21.2706C37.2078 20.4123 36.9883 19.7365 36.5495 19.2432C36.1156 18.75 35.5165 18.4787 34.7523 18.4293ZM33.6502 18.4367C32.9156 18.4762 32.3214 18.7426 31.8678 19.2358C31.4142 19.7242 31.1873 20.4024 31.1873 21.2706C31.1873 22.1387 31.4142 22.8194 31.8678 23.3127C32.3214 23.806 32.9156 24.0699 33.6502 24.1044V18.4367Z" fill="#D9D9D9"/>
    <path d="M39.5378 26.7459V15.8988H41.3055L43.4134 23.5791L43.835 25.1847C43.9385 24.7851 44.0963 24.2055 44.3083 23.4459L46.4384 15.8988H48.0212V26.7459H46.8896V17.6672L44.3009 26.7459H43.2433L40.6694 17.5118V26.7459H39.5378Z" fill="#D9D9D9"/>
    <path d="M49.0569 23.4903V22.1511H52.4073V23.4903H49.0569Z" fill="#D9D9D9"/>
    <path d="M59.7742 22.9428L60.9575 23.3053C60.6962 24.5237 60.2376 25.4338 59.5819 26.0356C58.931 26.6324 58.1372 26.9309 57.2003 26.9309C56.3769 26.9309 55.6718 26.7311 55.085 26.3315C54.5032 25.927 54.0249 25.2809 53.6502 24.393C53.2804 23.5051 53.0955 22.4569 53.0955 21.2484C53.0955 20.0547 53.2804 19.0459 53.6502 18.2222C54.0249 17.3935 54.5303 16.7695 55.1664 16.3502C55.8025 15.926 56.5125 15.7139 57.2965 15.7139C58.1544 15.7139 58.8916 15.9827 59.5079 16.5204C60.1242 17.0531 60.5557 17.8374 60.8022 18.8733L59.6484 19.2062C59.254 17.6968 58.4626 16.9421 57.2743 16.9421C56.6826 16.9421 56.1698 17.095 55.7359 17.4009C55.302 17.7017 54.9544 18.1728 54.693 18.8141C54.4366 19.4553 54.3084 20.2668 54.3084 21.2484C54.3084 22.7331 54.5698 23.8479 55.0924 24.5927C55.6151 25.3327 56.3103 25.7026 57.1781 25.7026C57.8191 25.7026 58.3714 25.4757 58.8349 25.0219C59.3033 24.5632 59.6164 23.8701 59.7742 22.9428Z" fill="#D9D9D9"/>
    <path d="M64.4044 26.7459V17.1789H61.4756V15.8988H68.524V17.1789H65.5804V26.7459H64.4044Z" fill="#D9D9D9"/>
    <path d="M28.4395 29.7118H29.5268V35.7051L32.5592 29.7118H33.7351V37.5697H32.6479V31.6134L29.6155 37.5697H28.4395V29.7118Z" fill="#D9D9D9"/>
    <path d="M35.1185 29.7118H36.8196L38.5133 36.0011L40.3845 29.7118H41.9599V37.5697H40.8653V31.2435L38.9645 37.5697H37.9882L36.1836 30.9401V37.5697H35.1185V29.7118Z" fill="#D9D9D9"/>
    <path d="M47.7218 35.0392L48.846 35.2094C48.6586 36.0479 48.3184 36.6818 47.8253 37.1109C47.3372 37.5351 46.7307 37.7472 46.0059 37.7472C45.0937 37.7472 44.3541 37.4019 43.787 36.7114C43.2249 36.0158 42.9439 35.0145 42.9439 33.7073C42.9439 32.3508 43.2274 31.3174 43.7944 30.6071C44.3664 29.8919 45.0888 29.5343 45.9615 29.5343C46.7948 29.5343 47.49 29.8845 48.0472 30.5849C48.6044 31.2854 48.883 32.2991 48.883 33.6259L48.8756 33.9811H44.0681C44.1125 34.8641 44.3171 35.53 44.682 35.9789C45.0468 36.4277 45.4906 36.6522 46.0133 36.6522C46.8318 36.6522 47.4013 36.1145 47.7218 35.0392ZM44.1347 32.886H47.7292C47.6799 32.2053 47.5344 31.6973 47.2928 31.3618C46.9427 30.8735 46.4965 30.6293 45.9541 30.6293C45.466 30.6293 45.0493 30.834 44.7042 31.2435C44.359 31.6479 44.1692 32.1955 44.1347 32.886Z" fill="#D9D9D9"/>
    <path d="M49.9409 29.7118H51.0281V32.9822H54.0605V29.7118H55.1477V37.5697H54.0605V34.0847H51.0281V37.5697H49.9409V29.7118Z" fill="#D9D9D9"/>
    <path d="M56.5015 29.7118H57.5888V35.7051L60.6212 29.7118H61.7971V37.5697H60.7099V31.6134L57.6775 37.5697H56.5015V29.7118Z" fill="#D9D9D9"/>
    <path d="M20 40.5356H25.2364V41.6381H23.1655V48.3934H22.0709V41.6381H20V40.5356Z" fill="#D9D9D9"/>
    <path d="M30.1625 47.4242C29.7977 47.804 29.418 48.0901 29.0235 48.2824C28.6291 48.4748 28.2198 48.571 27.7958 48.571C27.1252 48.571 26.5902 48.3688 26.1908 47.9643C25.7914 47.5598 25.5917 47.0147 25.5917 46.3291C25.5917 45.8753 25.6854 45.4733 25.8728 45.123C26.0602 44.7728 26.3166 44.4991 26.642 44.3017C26.9674 44.1044 27.4605 43.9589 28.1212 43.8652C29.0087 43.737 29.6596 43.584 30.0738 43.4065L30.0812 43.0661C30.0812 42.5284 29.985 42.1511 29.7927 41.934C29.5215 41.6184 29.1049 41.4605 28.5428 41.4605C28.0349 41.4605 27.6553 41.5666 27.4038 41.7787C27.1523 41.9858 26.9674 42.378 26.8491 42.9551L25.7767 42.7775C25.9295 41.934 26.2377 41.3199 26.7012 40.9352C27.1696 40.5504 27.8377 40.358 28.7055 40.358C29.381 40.358 29.9111 40.4863 30.2957 40.7428C30.6803 40.9944 30.9219 41.3076 31.0205 41.6825C31.124 42.0574 31.1758 42.6049 31.1758 43.3251V45.1008C31.1758 46.3439 31.198 47.1282 31.2424 47.4537C31.2917 47.7744 31.3854 48.0876 31.5234 48.3934H30.3844C30.271 48.1221 30.1971 47.799 30.1625 47.4242ZM30.0738 44.4497C29.6744 44.647 29.0802 44.8148 28.2913 44.9529C27.8328 45.0318 27.5123 45.123 27.3298 45.2266C27.1474 45.3253 27.0044 45.4683 26.9009 45.6558C26.8022 45.8383 26.7529 46.0504 26.7529 46.2921C26.7529 46.667 26.8688 46.9679 27.1006 47.1948C27.3323 47.4168 27.6528 47.5277 28.062 47.5277C28.4516 47.5277 28.8041 47.4266 29.1197 47.2244C29.4402 47.0221 29.6793 46.7533 29.8371 46.4179C29.9949 46.0775 30.0738 45.5842 30.0738 44.9381V44.4497Z" fill="#D9D9D9"/>
    <path d="M32.5814 40.5356H33.6686V43.9318C34.0187 43.9318 34.2627 43.8504 34.4008 43.6876C34.5438 43.5199 34.7509 43.0464 35.0221 42.267C35.2341 41.6405 35.4067 41.2287 35.5398 41.0314C35.6779 40.8291 35.8307 40.6959 35.9984 40.6318C36.1709 40.5677 36.4692 40.5356 36.8933 40.5356H37.056V41.6381L36.7306 41.6307C36.4988 41.6307 36.3336 41.6726 36.235 41.7565C36.1364 41.8403 36.0526 41.9982 35.9836 42.23C35.737 43.0242 35.5423 43.5347 35.3993 43.7616C35.2563 43.9885 35.0295 44.1883 34.7188 44.3609C35.1873 44.5139 35.6483 45.0466 36.1019 45.9591L37.3001 48.3934H36.1019L34.9333 45.9591C34.6966 45.4659 34.4871 45.1428 34.3047 44.9899C34.1271 44.8369 33.9151 44.7605 33.6686 44.7605V48.3934H32.5814V40.5356Z" fill="#D9D9D9"/>
    <path d="M37.2856 44.4645C37.2856 43.108 37.5691 42.0845 38.1361 41.3939C38.7081 40.7033 39.4304 40.358 40.3032 40.358C41.1611 40.358 41.8786 40.7033 42.4555 41.3939C43.0323 42.0845 43.3208 43.0809 43.3208 44.3831C43.3208 45.7939 43.0373 46.8446 42.4702 47.5351C41.9032 48.2257 41.1809 48.571 40.3032 48.571C39.4403 48.571 38.7204 48.2257 38.1435 47.5351C37.5716 46.8396 37.2856 45.8161 37.2856 44.4645ZM38.4024 44.4645C38.4024 45.4807 38.5873 46.2378 38.9571 46.736C39.3269 47.2293 39.7855 47.4759 40.3328 47.4759C40.8456 47.4759 41.2844 47.2268 41.6493 46.7286C42.0191 46.2255 42.204 45.4708 42.204 44.4645C42.204 43.4533 42.0191 42.7011 41.6493 42.2078C41.2795 41.7096 40.8209 41.4605 40.2736 41.4605C39.7559 41.4605 39.3146 41.7096 38.9497 42.2078C38.5848 42.706 38.4024 43.4583 38.4024 44.4645Z" fill="#D9D9D9"/>
    <path d="M44.327 40.5356H48.0324V41.6381H45.4142V48.3934H44.327V40.5356Z" fill="#D9D9D9"/>
    <path d="M48.1289 44.4645C48.1289 43.108 48.4124 42.0845 48.9794 41.3939C49.5514 40.7033 50.2737 40.358 51.1465 40.358C52.0044 40.358 52.7218 40.7033 53.2987 41.3939C53.8756 42.0845 54.1641 43.0809 54.1641 44.3831C54.1641 45.7939 53.8806 46.8446 53.3135 47.5351C52.7465 48.2257 52.0241 48.571 51.1465 48.571C50.2836 48.571 49.5637 48.2257 48.9868 47.5351C48.4148 46.8396 48.1289 45.8161 48.1289 44.4645ZM49.2457 44.4645C49.2457 45.4807 49.4306 46.2378 49.8004 46.736C50.1702 47.2293 50.6287 47.4759 51.176 47.4759C51.6888 47.4759 52.1277 47.2268 52.4925 46.7286C52.8624 46.2255 53.0473 45.4708 53.0473 44.4645C53.0473 43.4533 52.8624 42.7011 52.4925 42.2078C52.1227 41.7096 51.6642 41.4605 51.1169 41.4605C50.5991 41.4605 50.1578 41.7096 49.793 42.2078C49.4281 42.706 49.2457 43.4583 49.2457 44.4645Z" fill="#D9D9D9"/>
    <path d="M54.7339 45.1378V43.7986H58.0843V45.1378H54.7339Z" fill="#D9D9D9"/>
    <path d="M58.41 40.5356H63.6465V41.6381H61.5756V48.3934H60.4809V41.6381H58.41V40.5356Z" fill="#D9D9D9"/>
    <path d="M63.9648 44.4645C63.9648 43.108 64.2483 42.0845 64.8153 41.3939C65.3873 40.7033 66.1097 40.358 66.9824 40.358C67.8403 40.358 68.5578 40.7033 69.1347 41.3939C69.7116 42.0845 70 43.0809 70 44.3831C70 45.7939 69.7165 46.8446 69.1494 47.5351C68.5824 48.2257 67.8601 48.571 66.9824 48.571C66.1195 48.571 65.3996 48.2257 64.8227 47.5351C64.2508 46.8396 63.9648 45.8161 63.9648 44.4645ZM65.0816 44.4645C65.0816 45.4807 65.2665 46.2378 65.6363 46.736C66.0061 47.2293 66.4647 47.4759 67.012 47.4759C67.5248 47.4759 67.9636 47.2268 68.3285 46.7286C68.6983 46.2255 68.8832 45.4708 68.8832 44.4645C68.8832 43.4533 68.6983 42.7011 68.3285 42.2078C67.9587 41.7096 67.5001 41.4605 66.9528 41.4605C66.4351 41.4605 65.9938 41.7096 65.6289 42.2078C65.264 42.706 65.0816 43.4583 65.0816 44.4645Z" fill="#D9D9D9"/>
    <path fill-rule="evenodd" clip-rule="evenodd" d="M17.823 1.77753C17.9272 2.05476 17.7849 2.36323 17.5051 2.46651C16.5007 2.83721 15.204 3.68948 13.9839 4.67021C12.7695 5.64634 11.6887 6.70262 11.1095 7.43717C8.85961 10.2903 6.44025 13.6525 5.24522 17.0002C5.1141 17.3676 4.98322 17.7323 4.85309 18.0949C3.38467 22.1868 2.01205 26.0116 1.4689 30.3166C1.00951 33.9577 0.79364 38.5329 1.77731 41.998C3.0837 46.5999 5.24719 51.9244 8.18868 55.6335C9.22596 56.9414 10.3583 58.2775 11.5344 59.4428C11.6504 59.5577 11.7716 59.6786 11.8971 59.8039C12.8345 60.739 14.0107 61.9123 15.0241 62.5923C15.2713 62.7582 15.336 63.0913 15.1685 63.3362C15.001 63.5812 14.6649 63.6453 14.4176 63.4794C13.3088 62.7353 12.0482 61.4763 11.1239 60.5532C10.9993 60.4288 10.8809 60.3105 10.7697 60.2003C9.55043 58.9923 8.38816 57.6191 7.33837 56.2954C4.27049 52.427 2.05927 46.9483 0.736327 42.2881C-0.309186 38.6051 -0.0666138 33.8494 0.395874 30.1837C0.954374 25.7571 2.36621 21.8246 3.82868 17.7511C3.96081 17.3831 4.09336 17.0139 4.22573 16.643C5.48476 13.116 8.00449 9.63454 10.2574 6.77759C10.9042 5.95734 12.0513 4.84396 13.3026 3.83823C14.5481 2.83712 15.9549 1.89537 17.1276 1.46256C17.4074 1.35928 17.7187 1.5003 17.823 1.77753Z" fill="#D9D9D9"/>
    <path fill-rule="evenodd" clip-rule="evenodd" d="M70.7285 0.416515C70.7966 0.127432 71.0909 -0.0528357 71.3859 0.0138758C75.0783 0.84888 78.6606 3.2161 81.0345 5.66492C83.0785 7.77336 85.5706 10.6656 86.9549 13.3303C91.0988 21.3068 93.1145 30.8216 91.6862 39.8194C90.9263 44.6065 89.6358 48.8572 87.5478 53.2338C86.9233 54.5427 86.0829 55.6249 85.2249 56.6379C85.005 56.8974 84.7856 57.1508 84.5681 57.4019C83.9249 58.1446 83.299 58.8673 82.7324 59.6692C82.3125 60.2636 81.7629 60.7523 81.275 61.1861C81.2343 61.2223 81.1941 61.258 81.1544 61.2935C80.6159 61.7739 80.1713 62.1938 79.8919 62.6865C79.5204 63.3419 79.0746 63.851 78.5144 64.2322C77.9566 64.6119 77.3143 64.8451 76.5778 64.9895C76.281 65.0476 75.9922 64.859 75.9328 64.5681C75.8734 64.2771 76.0659 63.9941 76.3628 63.9359C76.9968 63.8117 77.4874 63.6232 77.889 63.3498C78.2883 63.078 78.6285 62.7029 78.9336 62.1648C79.3122 61.4968 79.8905 60.9683 80.4162 60.4991C80.4507 60.4683 80.4851 60.4377 80.5192 60.4074C81.0266 59.9553 81.4859 59.5462 81.831 59.0577C82.4312 58.2082 83.1065 57.4287 83.7585 56.676C83.9696 56.4322 84.1783 56.1913 84.3812 55.9517C85.2227 54.9583 85.9907 53.9608 86.5546 52.7788C88.5967 48.4984 89.8581 44.3459 90.6029 39.6543C91.9904 30.9129 90.0341 21.6254 85.9779 13.8177C84.6683 11.2967 82.2672 8.49641 80.2397 6.4049C77.975 4.0688 74.5733 1.8373 71.1394 1.06074C70.8444 0.994027 70.6604 0.705599 70.7285 0.416515Z" fill="#D9D9D9"/>
</svg>
